<?xml version="1.0" encoding="utf-8"?>
<svg xmlns="http://www.w3.org/2000/svg" data-name="Ebene 1" id="Ebene_1" viewBox="0 0 753 471">
  <defs>
    <style>
      .cls-1, .cls-2, .cls-3, .cls-4, .cls-5 {
        fill: none;
      }

      .cls-6 {
        fill: url(#Unbenannter_Verlauf_2);
      }

      .cls-2 {
        stroke: #fa8d3d;
        stroke-width: 3px;
      }

      .cls-2, .cls-3, .cls-4 {
        stroke-linecap: round;
        stroke-linejoin: round;
      }

      .cls-3, .cls-4 {
        stroke: #fff;
        stroke-width: .75px;
      }

      .cls-7 {
        fill: #fff;
      }

      .cls-8 {
        fill: #999;
      }

      .cls-8, .cls-5 {
        stroke: #999;
        stroke-miterlimit: 10;
      }

      .cls-4 {
        stroke-dasharray: 7.87 7.87;
      }

      .cls-9, .cls-10 {
        opacity: .5;
      }

      .cls-11 {
        opacity: .2;
      }

      .cls-12 {
        fill: #fa8d3d;
      }

      .cls-10 {
        fill: url(#Unbenannter_Verlauf);
      }
    </style>
    <linearGradient data-name="Unbenannter Verlauf" gradientUnits="userSpaceOnUse" id="Unbenannter_Verlauf" x1="513.28" x2="363.76" y1="536.09" y2="168.31">
      <stop offset="0" stop-color="#ff9f62" stop-opacity="0"/>
      <stop offset="1" stop-color="#fa8d3d" stop-opacity=".35"/>
    </linearGradient>
    <radialGradient cx="661.58" cy="390.37" data-name="Unbenannter Verlauf 2" fx="661.58" fy="390.37" gradientTransform="translate(0 472) scale(1 -1)" gradientUnits="userSpaceOnUse" id="Unbenannter_Verlauf_2" r="38.07">
      <stop offset="0" stop-color="#fff"/>
      <stop offset=".09" stop-color="#ededed" stop-opacity=".92"/>
      <stop offset=".27" stop-color="#bebebe" stop-opacity=".72"/>
      <stop offset=".53" stop-color="#747474" stop-opacity=".39"/>
      <stop offset=".81" stop-color="#1c1c1c" stop-opacity="0"/>
    </radialGradient>
  </defs>
  <polygon class="cls-10" points="747.58 36.56 747.58 440.83 37.17 440.83 37.17 390.81 104.43 318.66 209.19 328.31 369.33 166.04 547.66 195.01 716.78 29.9 747.58 36.56"/>
  <g>
    <line class="cls-5" x1="745.84" x2="15.22" y1="440.58" y2="440.58"/>
    <line class="cls-5" x1="34.34" x2="34.34" y1="9.89" y2="460.33"/>
    <polygon class="cls-8" points="746.76 440.58 743.6 438.84 743.6 442.32 746.76 440.58"/>
    <polygon class="cls-8" points="34.34 6.92 32.48 9.89 36.19 9.89 34.34 6.92"/>
  </g>
  <g>
    <path class="cls-7" d="M676.57,459.88v-8.4h.98l3.77,6.35h-.53l3.72-6.35h.98v8.4h-1.14v-6.59h.26l-3.31,5.57h-.55l-3.34-5.57h.3v6.59h-1.15.01Z"/>
    <path class="cls-7" d="M691.82,459.98c-.64,0-1.23-.11-1.78-.32-.55-.22-1.02-.52-1.42-.91-.4-.39-.71-.84-.94-1.36-.22-.52-.34-1.09-.34-1.7s.11-1.18.34-1.7c.22-.52.54-.97.94-1.36.4-.39.87-.69,1.42-.91s1.14-.32,1.79-.32,1.23.11,1.78.32c.54.21,1.02.51,1.42.9.4.39.71.84.93,1.37.22.52.33,1.09.33,1.71s-.11,1.2-.33,1.72c-.22.52-.53.97-.93,1.36-.4.39-.87.69-1.42.9-.54.21-1.14.32-1.78.32v-.02ZM691.81,458.91c.47,0,.91-.08,1.3-.24.4-.16.74-.39,1.03-.68.29-.29.52-.63.68-1.03.16-.39.25-.82.25-1.28s-.08-.89-.25-1.28c-.16-.39-.39-.73-.68-1.03s-.64-.52-1.03-.68c-.4-.16-.83-.24-1.3-.24s-.89.08-1.29.24c-.4.16-.74.39-1.04.68-.3.3-.53.64-.69,1.03-.16.39-.25.81-.25,1.28s.08.89.25,1.28c.16.39.39.73.69,1.03.3.29.64.52,1.04.68.4.16.83.24,1.29.24Z"/>
    <path class="cls-7" d="M698.11,459.88v-8.4h.98l5.56,6.9h-.52v-6.9h1.2v8.4h-.98l-5.56-6.9h.52v6.9h-1.2Z"/>
    <path class="cls-7" d="M706.58,459.88l3.8-8.4h1.19l3.82,8.4h-1.26l-3.4-7.73h.48l-3.4,7.73h-1.24.01ZM708.2,457.78l.32-.96h4.73l.35.96h-5.4,0Z"/>
    <path class="cls-7" d="M718.3,459.88v-7.36h-2.88v-1.04h6.95v1.04h-2.88v7.36h-1.19Z"/>
    <path class="cls-7" d="M724.88,458.84h4.9v1.04h-6.1v-8.4h5.93v1.04h-4.73v6.31h0ZM724.77,455.11h4.32v1.02h-4.32v-1.02Z"/>
  </g>
  <g>
    <path class="cls-7" d="M27.84,92.99h-8.4v-1.2h8.4v1.2Z"/>
    <path class="cls-7" d="M27.84,89.27h-8.4v-.98l6.9-5.56v.52h-6.9v-1.2h8.4v.98l-6.9,5.56v-.52h6.9v1.2Z"/>
    <path class="cls-7" d="M27.84,77.1l-8.4,3.7v-1.3l7.75-3.4v.74l-7.75-3.42v-1.2l8.4,3.68v1.19h0Z"/>
    <path class="cls-7" d="M26.79,69.78v-4.9h1.04v6.1h-8.4v-5.93h1.04v4.73h6.32ZM23.06,69.89v-4.32h1.02v4.32h-1.02Z"/>
    <path class="cls-7" d="M27.93,60.49c0,.64-.1,1.25-.29,1.84-.2.58-.45,1.04-.76,1.38l-.94-.44c.28-.32.51-.73.7-1.22.18-.5.28-1.01.28-1.55,0-.49-.06-.88-.17-1.19-.11-.3-.27-.53-.46-.67-.2-.14-.42-.22-.67-.22-.29,0-.52.09-.7.28s-.32.43-.43.73-.2.63-.28.99-.17.72-.28,1.09c-.11.36-.25.7-.41,1-.17.3-.39.54-.68.73-.28.18-.65.28-1.1.28s-.83-.11-1.19-.34-.66-.58-.88-1.06-.33-1.08-.33-1.82c0-.49.06-.97.19-1.45.13-.48.31-.9.55-1.25l.96.4c-.24.36-.41.74-.52,1.14-.11.4-.16.79-.16,1.16,0,.47.06.86.18,1.16s.28.53.48.67c.2.14.42.21.67.21.3,0,.53-.09.71-.28.18-.19.32-.43.42-.73s.2-.63.28-.99.18-.72.28-1.09c.1-.36.24-.7.41-1s.39-.54.67-.73c.28-.18.64-.28,1.08-.28s.82.12,1.18.35.66.59.88,1.07.33,1.09.33,1.83Z"/>
    <path class="cls-7" d="M27.84,53.82h-7.36v2.88h-1.04v-6.95h1.04v2.88h7.36v1.19Z"/>
    <path class="cls-7" d="M27.84,48.45h-8.4v-.98l6.35-3.77v.53l-6.35-3.72v-.98h8.4v1.14h-6.59v-.26l5.57,3.31v.55l-5.57,3.34v-.3h6.59v1.15h0Z"/>
    <path class="cls-7" d="M26.79,35.79v-4.9h1.04v6.1h-8.4v-5.93h1.04v4.73h6.32ZM23.06,35.89v-4.32h1.02v4.32h-1.02Z"/>
    <path class="cls-7" d="M27.84,28.95h-8.4v-.98l6.9-5.56v.52h-6.9v-1.2h8.4v.98l-6.9,5.56v-.52h6.9v1.2Z"/>
    <path class="cls-7" d="M27.84,17.53h-7.36v2.88h-1.04v-6.95h1.04v2.88h7.36v1.19Z"/>
  </g>
  <g class="cls-9">
    <g>
      <line class="cls-3" x1="661.22" x2="661.22" y1="440.24" y2="436.28"/>
      <line class="cls-4" x1="661.22" x2="661.22" y1="428.5" y2="89.91"/>
      <line class="cls-3" x1="661.22" x2="661.22" y1="86.03" y2="82.07"/>
    </g>
  </g>
  <g>
    <path class="cls-7" d="M136.27,459.98c-.66,0-1.24-.17-1.76-.5-.52-.34-.92-.82-1.22-1.46s-.45-1.42-.45-2.33.15-1.69.45-2.33c.3-.64.71-1.13,1.22-1.46.52-.34,1.1-.5,1.76-.5s1.23.17,1.75.5c.52.34.93.82,1.22,1.46.29.64.44,1.42.44,2.33s-.15,1.69-.44,2.33c-.3.64-.71,1.13-1.22,1.46-.52.34-1.1.5-1.75.5ZM136.27,458.91c.44,0,.83-.12,1.16-.36s.59-.6.78-1.08.28-1.08.28-1.79-.09-1.31-.28-1.79-.45-.84-.78-1.08-.72-.36-1.16-.36-.83.12-1.16.36-.6.6-.79,1.08c-.19.48-.28,1.08-.28,1.79s.09,1.31.28,1.79.45.84.79,1.08.72.36,1.16.36Z"/>
    <path class="cls-7" d="M142.26,459.88v-7.92l.52.56h-2.41v-1.04h3.08v8.4h-1.19Z"/>
  </g>
  <g>
    <path class="cls-7" d="M238.77,459.98c-.66,0-1.24-.17-1.76-.5-.52-.34-.92-.82-1.22-1.46-.3-.64-.45-1.42-.45-2.33s.15-1.69.45-2.33c.3-.64.71-1.13,1.22-1.46.52-.34,1.1-.5,1.76-.5s1.23.17,1.75.5c.52.34.93.82,1.22,1.46.3.64.44,1.42.44,2.33s-.15,1.69-.44,2.33c-.3.64-.7,1.13-1.22,1.46-.52.34-1.1.5-1.75.5ZM238.77,458.91c.44,0,.83-.12,1.16-.36s.59-.6.78-1.08c.19-.48.28-1.08.28-1.79s-.09-1.31-.28-1.79-.45-.84-.78-1.08-.72-.36-1.16-.36-.83.12-1.16.36-.6.6-.79,1.08c-.19.48-.28,1.08-.28,1.79s.09,1.31.28,1.79.45.84.79,1.08.72.36,1.16.36Z"/>
    <path class="cls-7" d="M243.21,459.88v-.82l3.42-3.3c.3-.29.53-.54.68-.76s.25-.42.3-.61.08-.37.08-.55c0-.43-.15-.77-.46-1.02-.3-.25-.75-.37-1.33-.37-.45,0-.85.07-1.21.22s-.67.38-.94.69l-.82-.71c.32-.41.75-.72,1.29-.94s1.13-.33,1.78-.33c.58,0,1.09.09,1.52.28.43.19.77.46,1,.81.24.35.35.77.35,1.25,0,.27-.04.54-.11.8-.07.26-.21.54-.41.84s-.49.63-.86,1l-3.05,2.94-.29-.47h5.08v1.04h-6.04.02Z"/>
  </g>
  <g>
    <path class="cls-7" d="M344.4,459.98c-.66,0-1.24-.17-1.76-.5-.52-.34-.92-.82-1.22-1.46-.3-.64-.45-1.42-.45-2.33s.15-1.69.45-2.33c.3-.64.71-1.13,1.22-1.46.52-.34,1.1-.5,1.76-.5s1.23.17,1.75.5c.52.34.93.82,1.22,1.46.3.64.44,1.42.44,2.33s-.15,1.69-.44,2.33c-.3.64-.7,1.13-1.22,1.46-.52.34-1.1.5-1.75.5ZM344.4,458.91c.44,0,.83-.12,1.16-.36s.59-.6.78-1.08c.19-.48.28-1.08.28-1.79s-.09-1.31-.28-1.79-.45-.84-.78-1.08-.72-.36-1.16-.36-.83.12-1.16.36-.6.6-.79,1.08c-.19.48-.28,1.08-.28,1.79s.09,1.31.28,1.79.45.84.79,1.08.72.36,1.16.36Z"/>
    <path class="cls-7" d="M351.54,459.98c-.59,0-1.17-.09-1.72-.28-.56-.18-1.01-.43-1.36-.74l.55-.95c.28.26.64.48,1.09.65s.93.25,1.44.25c.62,0,1.11-.13,1.46-.4s.52-.63.52-1.09-.17-.79-.5-1.06-.86-.4-1.58-.4h-.67v-.84l2.5-3.07.17.48h-4.6v-1.04h5.54v.82l-2.48,3.06-.62-.37h.4c1.02,0,1.78.23,2.29.68.51.46.76,1.04.76,1.74,0,.47-.12.9-.35,1.3-.23.39-.58.7-1.05.93s-1.06.34-1.78.34h-.01Z"/>
  </g>
  <g>
    <path class="cls-7" d="M448.62,459.98c-.66,0-1.24-.17-1.76-.5s-.92-.82-1.22-1.46c-.3-.64-.45-1.42-.45-2.33s.15-1.69.45-2.33c.3-.64.71-1.13,1.22-1.46s1.1-.5,1.76-.5,1.23.17,1.75.5c.52.34.93.82,1.22,1.46.3.64.44,1.42.44,2.33s-.15,1.69-.44,2.33c-.3.64-.7,1.13-1.22,1.46-.52.34-1.1.5-1.75.5ZM448.62,458.91c.44,0,.83-.12,1.16-.36s.59-.6.78-1.08c.19-.48.28-1.08.28-1.79s-.09-1.31-.28-1.79-.45-.84-.78-1.08-.72-.36-1.16-.36-.83.12-1.16.36-.6.6-.79,1.08c-.19.48-.28,1.08-.28,1.79s.09,1.31.28,1.79.45.84.79,1.08.72.36,1.16.36Z"/>
    <path class="cls-7" d="M453.08,457.82v-.84l4.3-5.5h1.3l-4.26,5.5-.61-.19h6.71v1.03h-7.44ZM457.74,459.88v-2.06l.04-1.03v-1.82h1.13v4.92h-1.17Z"/>
  </g>
  <g>
    <path class="cls-7" d="M554.36,459.98c-.66,0-1.24-.17-1.76-.5-.52-.34-.92-.82-1.22-1.46-.3-.64-.45-1.42-.45-2.33s.15-1.69.45-2.33c.3-.64.71-1.13,1.22-1.46.52-.34,1.1-.5,1.76-.5s1.23.17,1.75.5c.52.34.93.82,1.22,1.46.3.64.44,1.42.44,2.33s-.15,1.69-.44,2.33c-.3.64-.7,1.13-1.22,1.46-.52.34-1.1.5-1.75.5ZM554.36,458.91c.44,0,.83-.12,1.16-.36s.59-.6.78-1.08c.19-.48.28-1.08.28-1.79s-.09-1.31-.28-1.79-.45-.84-.78-1.08-.72-.36-1.16-.36-.83.12-1.16.36-.6.6-.79,1.08c-.19.48-.28,1.08-.28,1.79s.09,1.31.28,1.79.45.84.79,1.08.72.36,1.16.36Z"/>
    <path class="cls-7" d="M561.64,459.98c-.59,0-1.17-.09-1.72-.28-.56-.18-1.01-.43-1.36-.74l.55-.95c.28.26.64.48,1.09.65s.92.25,1.43.25c.64,0,1.13-.14,1.48-.41.34-.27.52-.64.52-1.09,0-.31-.08-.58-.23-.82-.15-.23-.41-.41-.79-.53-.37-.12-.88-.19-1.53-.19h-1.91l.44-4.39h4.74v1.04h-4.3l.62-.59-.35,3.47-.62-.58h1.62c.84,0,1.52.11,2.03.32.51.22.88.51,1.12.89.23.38.35.82.35,1.31s-.12.92-.35,1.31c-.23.4-.58.71-1.05.95-.47.24-1.06.35-1.78.35v.03Z"/>
  </g>
  <g>
    <path class="cls-7" d="M657.38,459.98c-.66,0-1.24-.17-1.76-.5-.52-.34-.92-.82-1.22-1.46-.3-.64-.45-1.42-.45-2.33s.15-1.69.45-2.33c.3-.64.71-1.13,1.22-1.46.52-.34,1.1-.5,1.76-.5s1.23.17,1.75.5c.52.34.93.82,1.22,1.46.3.64.44,1.42.44,2.33s-.15,1.69-.44,2.33c-.3.64-.7,1.13-1.22,1.46-.52.34-1.1.5-1.75.5ZM657.38,458.91c.44,0,.83-.12,1.16-.36s.59-.6.78-1.08c.19-.48.28-1.08.28-1.79s-.09-1.31-.28-1.79-.45-.84-.78-1.08-.72-.36-1.16-.36-.83.12-1.16.36-.6.6-.79,1.08c-.19.48-.28,1.08-.28,1.79s.09,1.31.28,1.79.45.84.79,1.08.72.36,1.16.36Z"/>
    <path class="cls-7" d="M665.48,459.98c-.74,0-1.38-.16-1.91-.49-.53-.33-.93-.8-1.21-1.42-.28-.62-.41-1.38-.41-2.27,0-.95.17-1.76.5-2.41.34-.66.8-1.15,1.4-1.49.6-.34,1.29-.5,2.06-.5.4,0,.78.04,1.15.12.36.08.68.2.94.37l-.46.94c-.22-.15-.46-.26-.74-.31-.28-.06-.57-.08-.87-.08-.86,0-1.54.27-2.04.8s-.76,1.32-.76,2.37c0,.17,0,.37.02.6s.06.46.12.68l-.41-.41c.12-.37.31-.68.57-.93s.57-.44.94-.56c.36-.12.76-.19,1.18-.19.56,0,1.06.1,1.49.31s.77.5,1.02.88.37.83.37,1.35-.13,1-.4,1.4c-.26.4-.62.71-1.07.92-.45.22-.95.32-1.51.32h.03ZM665.43,459.01c.37,0,.69-.07.97-.2.28-.14.49-.33.65-.57.16-.24.24-.53.24-.86,0-.5-.17-.89-.52-1.18-.34-.29-.81-.44-1.4-.44-.38,0-.72.07-1.01.22s-.51.34-.68.58c-.16.24-.25.52-.25.83,0,.29.08.55.23.8.15.24.38.44.67.59.3.15.66.23,1.09.23h.01Z"/>
  </g>
  <g>
    <g class="cls-11" data-name="Layer 2" id="Layer_2">
      <path class="cls-12" d="M586.02,35.2c-36.62-1.48-73.36-1.48-109.98,0-11.28.48-20.25,5.79-21.07,12.48-2.51,21.69-2.5,43.45,0,65.14.81,6.68,9.79,11.99,21.07,12.48,36.62,1.49,73.36,1.49,109.98,0,11.28-.48,20.25-5.8,21.07-12.48,2.51-21.69,2.51-43.45,0-65.14-.82-6.68-9.79-11.99-21.07-12.48h0Z"/>
    </g>
    <g>
      <path class="cls-12" d="M494.93,81.63v-5.45l16.5-22.2h8.5l-16.1,22.2-4-1.15h27.55v6.6h-32.45ZM513.78,88.98v-7.35l.25-6.6v-6.55h7.65v20.5h-7.9Z"/>
      <path class="cls-12" d="M537.13,88.98l12.1-15.75-.15,4.3-11.5-15.45h8.7l7.3,10.05-3.3.1,7.5-10.15h8.35l-11.65,15.25.05-4.2,12,15.85h-8.85l-7.65-10.7,3.25.45-7.55,10.25h-8.6Z"/>
      <path class="cls-12" d="M472.89,106.38v-8.4h3.82c.91,0,1.72.17,2.41.52.7.35,1.24.84,1.63,1.46.39.63.59,1.37.59,2.21s-.2,1.59-.59,2.21c-.39.63-.94,1.12-1.63,1.46-.7.35-1.5.52-2.41.52h-3.82ZM474.84,104.79h1.76c.56,0,1.05-.11,1.46-.32s.73-.52.96-.91c.23-.4.34-.86.34-1.39s-.11-1-.34-1.39c-.23-.39-.55-.69-.96-.91s-.9-.32-1.46-.32h-1.76v5.23Z"/>
      <path class="cls-12" d="M484.73,104.82h4.57v1.56h-6.5v-8.4h6.35v1.56h-4.42v5.28ZM484.59,101.35h4.04v1.52h-4.04v-1.52Z"/>
      <path class="cls-12" d="M490.85,106.38v-8.4h1.96v8.4h-1.96Z"/>
      <path class="cls-12" d="M494.79,106.38v-8.4h1.61l4.96,6.05h-.78v-6.05h1.92v8.4h-1.61l-4.96-6.05h.78v6.05h-1.92Z"/>
      <path class="cls-12" d="M507.88,106.38v-8.4h1.96v8.4h-1.96Z"/>
      <path class="cls-12" d="M511.81,106.38v-8.4h1.61l4.96,6.05h-.78v-6.05h1.92v8.4h-1.61l-4.96-6.05h.78v6.05h-1.92Z"/>
      <path class="cls-12" d="M524.03,106.38l-3.64-8.4h2.11l3.17,7.44h-1.24l3.22-7.44h1.93l-3.64,8.4h-1.92Z"/>
      <path class="cls-12" d="M532.39,104.82h4.57v1.56h-6.5v-8.4h6.35v1.56h-4.42v5.28ZM532.25,101.35h4.04v1.52h-4.04v-1.52Z"/>
      <path class="cls-12" d="M541.28,106.52c-.67,0-1.32-.09-1.94-.27s-1.12-.41-1.49-.7l.66-1.46c.35.26.78.47,1.27.63.5.16,1,.25,1.5.25.38,0,.69-.04.93-.12.24-.08.41-.19.52-.32s.17-.29.17-.46c0-.22-.09-.4-.26-.53-.18-.13-.41-.24-.7-.32s-.61-.16-.95-.24c-.34-.08-.69-.17-1.04-.28-.35-.11-.67-.25-.96-.43-.29-.18-.52-.42-.7-.71-.17-.29-.26-.66-.26-1.1,0-.48.13-.92.38-1.31.26-.4.65-.71,1.17-.95.52-.24,1.18-.35,1.97-.35.53,0,1.05.06,1.57.19.52.13.97.31,1.35.55l-.61,1.46c-.38-.22-.76-.38-1.16-.49-.4-.11-.78-.16-1.15-.16s-.69.04-.92.13c-.23.08-.4.2-.51.34-.11.14-.16.3-.16.48,0,.22.09.4.26.54.18.14.41.24.7.32.29.08.61.15.96.23.35.08.7.17,1.04.28.34.11.66.25.95.43.29.17.52.4.7.7.18.29.27.65.27,1.09,0,.47-.13.9-.39,1.3-.26.39-.65.71-1.18.95-.53.24-1.19.36-1.98.36Z"/>
      <path class="cls-12" d="M547.91,106.38v-6.82h-2.69v-1.58h7.32v1.58h-2.69v6.82h-1.94Z"/>
      <path class="cls-12" d="M553.59,106.38v-8.4h1.61l3.58,5.93h-.85l3.5-5.93h1.62v8.4h-1.81l-.02-5.6h.36l-2.83,4.7h-.86l-2.87-4.7h.4v5.6h-1.81Z"/>
      <path class="cls-12" d="M566.98,104.82h4.57v1.56h-6.5v-8.4h6.35v1.56h-4.42v5.28ZM566.83,101.35h4.04v1.52h-4.04v-1.52Z"/>
      <path class="cls-12" d="M573.1,106.38v-8.4h1.61l4.96,6.05h-.78v-6.05h1.92v8.4h-1.61l-4.96-6.05h.78v6.05h-1.92Z"/>
      <path class="cls-12" d="M584.53,106.38v-6.82h-2.69v-1.58h7.32v1.58h-2.69v6.82h-1.94Z"/>
    </g>
  </g>
  <polyline class="cls-2" points="36.7 391.31 104.43 318.66 209.19 328.31 369.33 166.04 547.67 195.01 716.78 29.9 748.11 36.67"/>
  <polygon class="cls-1" points="747.58 26.72 747.58 36.56 716.78 29.9 547.66 195.01 369.33 166.04 209.19 328.31 104.43 318.66 37.17 390.81 37.17 26.72 747.58 26.72"/>
  <circle class="cls-6" cx="661.58" cy="81.63" r="38.07"/>
</svg>